<svg xmlns="http://www.w3.org/2000/svg">
    <symbol id="user" viewBox="0 0 20 20">
    <g>
        <path d="M18.9061 16.0937H17.0311V14.2187C17.0311 14.1156 16.9467 14.0312 16.8436 14.0312H15.7186C15.6155 14.0312 15.5311 14.1156 15.5311 14.2187V16.0937H13.6561C13.553 16.0937 13.4686 16.1781 13.4686 16.2812V17.4062C13.4686 17.5093 13.553 17.5937 13.6561 17.5937H15.5311V19.4687C15.5311 19.5718 15.6155 19.6562 15.7186 19.6562H16.8436C16.9467 19.6562 17.0311 19.5718 17.0311 19.4687V17.5937H18.9061C19.0092 17.5937 19.0936 17.5093 19.0936 17.4062V16.2812C19.0936 16.1781 19.0092 16.0937 18.9061 16.0937ZM6.75376 9.68122C6.73266 9.47731 6.72094 9.27106 6.72094 9.06247C6.72094 8.68981 6.7561 8.32653 6.82173 7.97263C6.83813 7.88825 6.7936 7.80153 6.71626 7.76638C6.39751 7.62341 6.10454 7.42653 5.85141 7.1781C5.55315 6.88889 5.31844 6.54069 5.16227 6.15571C5.0061 5.77073 4.93189 5.35742 4.94438 4.94216C4.96548 4.18981 5.26782 3.47497 5.79516 2.93591C6.37407 2.34294 7.15219 2.0195 7.97954 2.02888C8.72719 2.03591 9.44907 2.32419 9.99516 2.83513C10.1803 3.00856 10.3397 3.20075 10.4733 3.407C10.5202 3.47966 10.6116 3.51013 10.6913 3.482C11.1038 3.33903 11.5397 3.23825 11.9874 3.19138C12.1186 3.17731 12.1936 3.03669 12.135 2.9195C11.3733 1.41247 9.81704 0.371845 8.01704 0.34372C5.42016 0.303876 3.25454 2.43434 3.25454 5.03122C3.25454 6.50309 3.93188 7.8156 4.9936 8.67575C4.24829 9.02028 3.56157 9.49606 2.96626 10.0914C1.68188 11.3734 0.95532 13.0656 0.908445 14.8726C0.907819 14.8976 0.912207 14.9225 0.921349 14.9458C0.930492 14.9691 0.944204 14.9903 0.961677 15.0082C0.979151 15.0262 1.00003 15.0404 1.02309 15.0501C1.04615 15.0598 1.07092 15.0648 1.09595 15.0648H2.41079C2.51157 15.0648 2.59594 14.9851 2.59829 14.8843C2.64282 13.525 3.1936 12.2523 4.16157 11.2867C4.85063 10.5976 5.69438 10.1195 6.61548 9.88747C6.70454 9.86169 6.76548 9.77497 6.75376 9.68122V9.68122ZM17.3124 9.06247C17.3124 6.49841 15.2522 4.41481 12.6975 4.37497C10.1006 4.33513 7.93735 6.4656 7.93735 9.06247C7.93735 10.5343 8.61704 11.8468 9.67641 12.707C8.92338 13.0561 8.23787 13.5353 7.65141 14.1226C6.36704 15.4047 5.64048 17.0968 5.5936 18.9015C5.59298 18.9265 5.59736 18.9514 5.60651 18.9747C5.61565 18.998 5.62936 19.0192 5.64683 19.0372C5.66431 19.0551 5.68519 19.0693 5.70825 19.079C5.73131 19.0887 5.75608 19.0937 5.7811 19.0937H7.0936C7.19438 19.0937 7.27876 19.014 7.2811 18.9132C7.32563 17.5539 7.87641 16.2812 8.84438 15.3156C9.85454 14.3054 11.1952 13.75 12.6249 13.75C15.2124 13.75 17.3124 11.6523 17.3124 9.06247ZM14.7459 11.1836C14.1788 11.7508 13.4264 12.0625 12.6249 12.0625C11.8233 12.0625 11.0709 11.7508 10.5038 11.1836C10.2207 10.902 9.99709 10.5665 9.84611 10.1969C9.69514 9.82733 9.6199 9.4312 9.62485 9.032C9.63188 8.26325 9.93891 7.52028 10.4756 6.9695C11.0381 6.39294 11.7905 6.07184 12.5944 6.06247C13.3889 6.05544 14.16 6.36481 14.7272 6.92028C15.3084 7.48981 15.6272 8.25153 15.6272 9.06247C15.6249 9.86403 15.3131 10.6164 14.7459 11.1836V11.1836Z"/>
    </g>
    </symbol>
    <symbol id="chat" viewBox="0 0 24 24">
    <g>
        <path d="M10.8752 12C10.8752 12.2984 10.9937 12.5845 11.2047 12.7955C11.4157 13.0065 11.7018 13.125 12.0002 13.125C12.2986 13.125 12.5847 13.0065 12.7957 12.7955C13.0067 12.5845 13.1252 12.2984 13.1252 12C13.1252 11.7016 13.0067 11.4155 12.7957 11.2045C12.5847 10.9935 12.2986 10.875 12.0002 10.875C11.7018 10.875 11.4157 10.9935 11.2047 11.2045C10.9937 11.4155 10.8752 11.7016 10.8752 12V12ZM15.5627 12C15.5627 12.2984 15.6812 12.5845 15.8922 12.7955C16.1032 13.0065 16.3893 13.125 16.6877 13.125C16.9861 13.125 17.2722 13.0065 17.4832 12.7955C17.6942 12.5845 17.8127 12.2984 17.8127 12C17.8127 11.7016 17.6942 11.4155 17.4832 11.2045C17.2722 10.9935 16.9861 10.875 16.6877 10.875C16.3893 10.875 16.1032 10.9935 15.8922 11.2045C15.6812 11.4155 15.5627 11.7016 15.5627 12ZM6.18769 12C6.18769 12.2984 6.30622 12.5845 6.5172 12.7955C6.72818 13.0065 7.01433 13.125 7.31269 13.125C7.61106 13.125 7.89721 13.0065 8.10819 12.7955C8.31917 12.5845 8.43769 12.2984 8.43769 12C8.43769 11.7016 8.31917 11.4155 8.10819 11.2045C7.89721 10.9935 7.61106 10.875 7.31269 10.875C7.01433 10.875 6.72818 10.9935 6.5172 11.2045C6.30622 11.4155 6.18769 11.7016 6.18769 12V12ZM21.6846 7.93125C21.1549 6.67266 20.3955 5.54297 19.4275 4.57266C18.4663 3.60796 17.3253 2.84114 16.0689 2.31563C14.7799 1.77422 13.4111 1.5 12.0002 1.5H11.9533C10.533 1.50703 9.15723 1.78828 7.86348 2.34141C6.61791 2.87232 5.48753 3.64049 4.53535 4.60312C3.57676 5.57109 2.82441 6.69609 2.3041 7.95C1.76504 9.24844 1.49316 10.6289 1.50019 12.0492C1.50815 13.6769 1.89322 15.2806 2.62519 16.7344V20.2969C2.62519 20.5828 2.73878 20.857 2.94097 21.0592C3.14316 21.2614 3.41738 21.375 3.70332 21.375H7.26816C8.72198 22.107 10.3257 22.492 11.9533 22.5H12.0025C13.4064 22.5 14.7682 22.2281 16.0502 21.6961C17.3002 21.1768 18.437 20.419 19.3971 19.4648C20.365 18.5062 21.1268 17.3859 21.6588 16.1367C22.2119 14.843 22.4932 13.4672 22.5002 12.0469C22.5072 10.6195 22.2307 9.23437 21.6846 7.93125V7.93125ZM18.1432 18.1969C16.5002 19.8234 14.3205 20.7188 12.0002 20.7188H11.9604C10.5471 20.7117 9.14316 20.3602 7.90332 19.6992L7.70644 19.5938H4.40644V16.2938L4.30098 16.0969C3.64004 14.857 3.28848 13.4531 3.28144 12.0398C3.27207 9.70313 4.16504 7.50937 5.80332 5.85703C7.43926 4.20469 9.62598 3.29063 11.9627 3.28125H12.0025C13.1744 3.28125 14.3111 3.50859 15.3822 3.95859C16.4275 4.39687 17.365 5.02734 18.1713 5.83359C18.9752 6.6375 19.608 7.57734 20.0463 8.62266C20.501 9.70547 20.7283 10.8539 20.7236 12.0398C20.7096 14.3742 19.7932 16.5609 18.1432 18.1969V18.1969Z"/>
    </g>
    </symbol>
    <symbol id="bell" viewBox="0 0 24 24">
    <g>
        <path d="M19.125 18H18.5625V10.0312C18.5625 6.72422 16.118 3.99141 12.9375 3.53672V2.625C12.9375 2.10703 12.518 1.6875 12 1.6875C11.482 1.6875 11.0625 2.10703 11.0625 2.625V3.53672C7.88203 3.99141 5.4375 6.72422 5.4375 10.0312V18H4.875C4.46016 18 4.125 18.3352 4.125 18.75V19.5C4.125 19.6031 4.20937 19.6875 4.3125 19.6875H9.375C9.375 21.1359 10.5516 22.3125 12 22.3125C13.4484 22.3125 14.625 21.1359 14.625 19.6875H19.6875C19.7906 19.6875 19.875 19.6031 19.875 19.5V18.75C19.875 18.3352 19.5398 18 19.125 18ZM12 20.8125C11.3789 20.8125 10.875 20.3086 10.875 19.6875H13.125C13.125 20.3086 12.6211 20.8125 12 20.8125ZM7.125 18V10.0312C7.125 8.72813 7.63125 7.50469 8.55234 6.58359C9.47344 5.6625 10.6969 5.15625 12 5.15625C13.3031 5.15625 14.5266 5.6625 15.4477 6.58359C16.3687 7.50469 16.875 8.72813 16.875 10.0312V18H7.125Z"/>
    </g>
    </symbol>
    <symbol id="info">
    <g>
        <path d="M12 1.5C6.20156 1.5 1.5 6.20156 1.5 12C1.5 17.7984 6.20156 22.5 12 22.5C17.7984 22.5 22.5 17.7984 22.5 12C22.5 6.20156 17.7984 1.5 12 1.5ZM12 20.7188C7.18594 20.7188 3.28125 16.8141 3.28125 12C3.28125 7.18594 7.18594 3.28125 12 3.28125C16.8141 3.28125 20.7188 7.18594 20.7188 12C20.7188 16.8141 16.8141 20.7188 12 20.7188Z"/>
                            <path d="M10.875 7.875C10.875 8.17337 10.9935 8.45952 11.2045 8.6705C11.4155 8.88147 11.7016 9 12 9C12.2984 9 12.5845 8.88147 12.7955 8.6705C13.0065 8.45952 13.125 8.17337 13.125 7.875C13.125 7.57663 13.0065 7.29048 12.7955 7.0795C12.5845 6.86853 12.2984 6.75 12 6.75C11.7016 6.75 11.4155 6.86853 11.2045 7.0795C10.9935 7.29048 10.875 7.57663 10.875 7.875ZM12.5625 10.5H11.4375C11.3344 10.5 11.25 10.5844 11.25 10.6875V17.0625C11.25 17.1656 11.3344 17.25 11.4375 17.25H12.5625C12.6656 17.25 12.75 17.1656 12.75 17.0625V10.6875C12.75 10.5844 12.6656 10.5 12.5625 10.5Z"/>
    </g>
    </symbol>
    <symbol id="setting" viewBox="0 0 12 14">
    <g>
<path d="M11.6438 8.55473L10.7483 7.7891C10.7907 7.52934 10.8126 7.2641 10.8126 6.99887C10.8126 6.73363 10.7907 6.4684 10.7483 6.20863L11.6438 5.44301C11.7114 5.38519 11.7597 5.30817 11.7824 5.22221C11.8051 5.13624 11.8011 5.0454 11.771 4.96176L11.7587 4.92621C11.5121 4.23719 11.143 3.59845 10.669 3.04086L10.6444 3.01215C10.5869 2.94454 10.5103 2.89595 10.4246 2.87276C10.339 2.84958 10.2483 2.85289 10.1645 2.88227L9.05301 3.27738C8.64285 2.94106 8.18485 2.67582 7.68992 2.48988L7.47528 1.32777C7.45908 1.24033 7.41667 1.15989 7.35366 1.09713C7.29066 1.03437 7.21005 0.992262 7.12254 0.976407L7.08563 0.969571C6.37332 0.841055 5.6241 0.841055 4.9118 0.969571L4.87489 0.976407C4.78738 0.992262 4.70677 1.03437 4.64377 1.09713C4.58076 1.15989 4.53835 1.24033 4.52215 1.32777L4.30614 2.49535C3.81516 2.68133 3.35795 2.94642 2.95262 3.28012L1.83289 2.88227C1.74918 2.85266 1.65843 2.84922 1.57271 2.87242C1.487 2.89562 1.41037 2.94436 1.35301 3.01215L1.3284 3.04086C0.855009 3.59884 0.485909 4.23747 0.238754 4.92621L0.226449 4.96176C0.164926 5.13266 0.215512 5.32406 0.353598 5.44301L1.26004 6.21684C1.21766 6.47387 1.19715 6.73637 1.19715 6.9975C1.19715 7.26 1.21766 7.5225 1.26004 7.77817L0.353598 8.55199C0.286053 8.60982 0.23771 8.68683 0.214998 8.7728C0.192285 8.85876 0.19628 8.9496 0.226449 9.03324L0.238754 9.06879C0.486215 9.75785 0.852621 10.3936 1.3284 10.9541L1.35301 10.9829C1.41051 11.0505 1.48714 11.0991 1.5728 11.1222C1.65847 11.1454 1.74915 11.1421 1.83289 11.1127L2.95262 10.7149C3.36004 11.0498 3.81532 11.3151 4.30614 11.4997L4.52215 12.6672C4.53835 12.7547 4.58076 12.8351 4.64377 12.8979C4.70677 12.9606 4.78738 13.0027 4.87489 13.0186L4.9118 13.0254C5.63065 13.1546 6.36678 13.1546 7.08563 13.0254L7.12254 13.0186C7.21005 13.0027 7.29066 12.9606 7.35366 12.8979C7.41667 12.8351 7.45908 12.7547 7.47528 12.6672L7.68992 11.5051C8.18465 11.3197 8.64524 11.0536 9.05301 10.7176L10.1645 11.1127C10.2483 11.1423 10.339 11.1458 10.4247 11.1226C10.5104 11.0994 10.5871 11.0506 10.6444 10.9829L10.669 10.9541C11.1448 10.3922 11.5112 9.75785 11.7587 9.06879L11.771 9.03324C11.8325 8.86508 11.7819 8.67367 11.6438 8.55473ZM9.77762 6.36996C9.8118 6.57641 9.82957 6.78832 9.82957 7.00024C9.82957 7.21215 9.8118 7.42406 9.77762 7.63051L9.68739 8.17875L10.7087 9.05238C10.5539 9.40907 10.3584 9.74672 10.1263 10.0586L8.8575 9.60883L8.42821 9.96156C8.10145 10.2295 7.73778 10.4401 7.34403 10.5877L6.82313 10.7832L6.5784 12.1094C6.19227 12.1532 5.80243 12.1532 5.41629 12.1094L5.17157 10.7805L4.65477 10.5823C4.26512 10.4346 3.90282 10.2241 3.57879 9.95746L3.1495 9.60336L1.87254 10.0573C1.64012 9.74418 1.44598 9.40649 1.29012 9.05102L2.32235 8.16918L2.23348 7.62231C2.20067 7.41859 2.18289 7.20805 2.18289 7.00024C2.18289 6.79106 2.1993 6.58188 2.23348 6.37816L2.32235 5.83129L1.29012 4.94945C1.44461 4.59262 1.64012 4.25629 1.87254 3.9432L3.1495 4.39711L3.57879 4.04301C3.90282 3.77641 4.26512 3.56586 4.65477 3.4182L5.17293 3.2227L5.41766 1.89379C5.80184 1.85004 6.19422 1.85004 6.57977 1.89379L6.8245 3.21996L7.34539 3.41547C7.73778 3.56313 8.10282 3.77367 8.42957 4.04164L8.85887 4.39438L10.1276 3.94457C10.36 4.25766 10.5542 4.59535 10.71 4.95082L9.68875 5.82445L9.77762 6.36996ZM6.00008 4.45727C4.67118 4.45727 3.59383 5.53461 3.59383 6.86352C3.59383 8.19242 4.67118 9.26977 6.00008 9.26977C7.32899 9.26977 8.40633 8.19242 8.40633 6.86352C8.40633 5.53461 7.32899 4.45727 6.00008 4.45727ZM7.08289 7.94633C6.94087 8.08876 6.77209 8.2017 6.58626 8.27866C6.40043 8.35562 6.20122 8.39508 6.00008 8.39477C5.59129 8.39477 5.20711 8.23481 4.91727 7.94633C4.77484 7.80431 4.6619 7.63553 4.58494 7.4497C4.50798 7.26387 4.46852 7.06465 4.46883 6.86352C4.46883 6.45473 4.62879 6.07055 4.91727 5.7807C5.20711 5.49086 5.59129 5.33227 6.00008 5.33227C6.40887 5.33227 6.79305 5.49086 7.08289 5.7807C7.22532 5.92272 7.33827 6.09151 7.41523 6.27734C7.49219 6.46317 7.53164 6.66238 7.53133 6.86352C7.53133 7.27231 7.37137 7.65649 7.08289 7.94633Z" fill="#8C8C8C"/>
    </g>
    </symbol>
        <symbol id="like-active" viewBox="0 0 16 16">
    <g>
<path d="M4.26562 7.74846V14.436L4.27031 7.74846H4.26562ZM12.675 6.36877H7.7625L7.9125 3.26877C7.92188 3.08283 7.83906 2.90783 7.68437 2.79221C7.58906 2.72189 7.47188 2.68596 7.35469 2.68752C7.04844 2.68908 6.77813 2.89689 6.69531 3.19221C6.11563 5.29221 5.68125 6.86721 5.39062 7.91877V13.3125H11.6313C11.7874 13.2425 11.9201 13.1289 12.0132 12.9853C12.1063 12.8417 12.156 12.6743 12.1562 12.5031C12.1562 12.3516 12.1203 12.2078 12.0484 12.0766L11.8313 11.6797L12.1734 11.3828C12.2698 11.2994 12.347 11.1962 12.3998 11.0803C12.4527 10.9643 12.4799 10.8384 12.4797 10.711C12.4797 10.5594 12.4437 10.4156 12.3719 10.2844L12.1547 9.88752L12.4969 9.59064C12.5932 9.50723 12.6704 9.40403 12.7232 9.28809C12.7761 9.17215 12.8033 9.04618 12.8031 8.91877C12.8031 8.76721 12.7672 8.62346 12.6953 8.49221L12.4766 8.09377L12.8188 7.79689C12.9151 7.71348 12.9923 7.61028 13.0451 7.49434C13.098 7.3784 13.1252 7.25243 13.125 7.12502C13.125 6.82658 12.9531 6.53908 12.675 6.36877Z" fill="#E6F7FF"/>
<path d="M1.75 8.25005V13.9375C1.75 14.2141 1.97344 14.4375 2.25 14.4375H3.26562V7.75005H2.25C1.97344 7.75005 1.75 7.97349 1.75 8.25005ZM13.8422 8.33911C14.1047 7.99224 14.25 7.56724 14.25 7.12505C14.25 6.42349 13.8578 5.75786 13.2266 5.39067C13.0641 5.29535 12.879 5.24519 12.6906 5.24536H8.94219L9.03594 3.32505C9.05937 2.86099 8.89531 2.42036 8.575 2.08442C8.4187 1.91868 8.23 1.78683 8.02061 1.69705C7.81123 1.60728 7.58563 1.5615 7.35781 1.56255C6.54531 1.56255 5.82656 2.10942 5.61094 2.89224L4.27031 7.74849L4.26562 14.436H11.6422C11.7875 14.436 11.9266 14.4079 12.0562 14.3516C12.8 14.0344 13.2797 13.3079 13.2797 12.5016C13.2797 12.3047 13.2516 12.111 13.1953 11.9235C13.4578 11.5766 13.6031 11.1516 13.6031 10.7094C13.6031 10.5125 13.575 10.3188 13.5188 10.1313C13.7812 9.78442 13.9266 9.35942 13.9266 8.91724C13.9266 8.72036 13.8984 8.52661 13.8422 8.33911ZM12.8188 7.79692L12.4766 8.0938L12.6953 8.49224C12.7669 8.62297 12.804 8.76976 12.8031 8.9188C12.8031 9.17661 12.6922 9.42192 12.4969 9.59067L12.1547 9.88755L12.3719 10.2844C12.4434 10.4152 12.4805 10.562 12.4797 10.711C12.4797 10.9688 12.3687 11.2141 12.1734 11.3829L11.8313 11.6797L12.0484 12.0766C12.12 12.2073 12.1571 12.3541 12.1562 12.5032C12.1562 12.8532 11.95 13.1688 11.6313 13.3125H5.39062V7.9188C5.68125 6.8688 6.11562 5.2938 6.69531 3.19224C6.73581 3.04809 6.82198 2.92098 6.94087 2.82998C7.05977 2.73898 7.20497 2.689 7.35469 2.68755C7.47188 2.68599 7.58906 2.72192 7.68437 2.79224C7.83906 2.90786 7.92188 3.08286 7.9125 3.2688L7.7625 6.3688H12.675C12.9531 6.53911 13.125 6.82661 13.125 7.12505C13.125 7.38286 13.0141 7.62817 12.8188 7.79692Z" fill="#1890FF"/>
    </g>
    </symbol>
            <symbol id="like" viewBox="0 0 24 24">
    <g>
<path d="M18.7633 10.5094C19.157 9.98909 19.375 9.35159 19.375 8.6883C19.375 7.63596 18.7867 6.63987 17.8398 6.0844C17.5961 5.94142 17.3185 5.86617 17.0359 5.86643H11.4156L11.5563 2.98596C11.5891 2.28987 11.343 1.62893 10.8648 1.12502C10.6302 0.876652 10.3471 0.679038 10.0331 0.544395C9.71905 0.409752 9.38074 0.34094 9.03906 0.342211C7.82031 0.342211 6.74219 1.16252 6.41875 2.33674L4.40547 9.62581H1.375C0.960156 9.62581 0.625 9.96096 0.625 10.3758V18.9071C0.625 19.3219 0.960156 19.6571 1.375 19.6571H15.468C15.6836 19.6571 15.8945 19.6149 16.0891 19.5305C17.2047 19.0547 17.9242 17.9649 17.9242 16.7555C17.9242 16.4602 17.882 16.1696 17.7977 15.8883C18.1914 15.368 18.4094 14.7305 18.4094 14.0672C18.4094 13.7719 18.3672 13.4813 18.2828 13.2C18.6766 12.6797 18.8945 12.0422 18.8945 11.3789C18.8898 11.0836 18.8477 10.7906 18.7633 10.5094ZM2.3125 17.9696V11.3133H4.21094V17.9696H2.3125ZM17.2281 9.69612L16.7148 10.1414L17.0406 10.7367C17.148 10.9328 17.2036 11.153 17.2023 11.3766C17.2023 11.7633 17.0336 12.1313 16.743 12.3844L16.2297 12.8297L16.5555 13.425C16.6628 13.6211 16.7185 13.8413 16.7172 14.0649C16.7172 14.4516 16.5484 14.8196 16.2578 15.0727L15.7445 15.518L16.0703 16.1133C16.1776 16.3094 16.2333 16.5296 16.232 16.7531C16.232 17.2781 15.9227 17.7516 15.4445 17.9672H5.71094V11.2383L8.04297 2.78909C8.1031 2.57252 8.23219 2.38147 8.41066 2.24486C8.58914 2.10825 8.80728 2.03354 9.03203 2.03205C9.21016 2.03205 9.38594 2.08362 9.52656 2.18909C9.75859 2.36252 9.88281 2.62502 9.86875 2.90393L9.64375 7.55393H17.0125C17.4297 7.8094 17.6875 8.24065 17.6875 8.6883C17.6875 9.07502 17.5188 9.44065 17.2281 9.69612Z"/>
    </g>
    </symbol>
    <symbol id="share" viewBox="0 0 24 24">
    <g>
<path d="M17.625 15.5625C16.957 15.5625 16.3406 15.7969 15.8578 16.1883L11.0016 12.675C11.0829 12.2287 11.0829 11.7713 11.0016 11.325L15.8578 7.81172C16.3406 8.20312 16.957 8.4375 17.625 8.4375C19.1766 8.4375 20.4375 7.17656 20.4375 5.625C20.4375 4.07344 19.1766 2.8125 17.625 2.8125C16.0734 2.8125 14.8125 4.07344 14.8125 5.625C14.8125 5.89687 14.85 6.15703 14.9227 6.40547L10.3102 9.74531C9.62578 8.83828 8.53828 8.25 7.3125 8.25C5.24062 8.25 3.5625 9.92812 3.5625 12C3.5625 14.0719 5.24062 15.75 7.3125 15.75C8.53828 15.75 9.62578 15.1617 10.3102 14.2547L14.9227 17.5945C14.85 17.843 14.8125 18.1055 14.8125 18.375C14.8125 19.9266 16.0734 21.1875 17.625 21.1875C19.1766 21.1875 20.4375 19.9266 20.4375 18.375C20.4375 16.8234 19.1766 15.5625 17.625 15.5625ZM17.625 4.40625C18.2977 4.40625 18.8438 4.95234 18.8438 5.625C18.8438 6.29766 18.2977 6.84375 17.625 6.84375C16.9523 6.84375 16.4062 6.29766 16.4062 5.625C16.4062 4.95234 16.9523 4.40625 17.625 4.40625ZM7.3125 14.0625C6.17578 14.0625 5.25 13.1367 5.25 12C5.25 10.8633 6.17578 9.9375 7.3125 9.9375C8.44922 9.9375 9.375 10.8633 9.375 12C9.375 13.1367 8.44922 14.0625 7.3125 14.0625ZM17.625 19.5938C16.9523 19.5938 16.4062 19.0477 16.4062 18.375C16.4062 17.7023 16.9523 17.1562 17.625 17.1562C18.2977 17.1562 18.8438 17.7023 18.8438 18.375C18.8438 19.0477 18.2977 19.5938 17.625 19.5938Z"/>
    </g>
    </symbol>
    <symbol id="dots" viewBox="0 0 24 24">
    <g>
<path d="M4.125 11.9766C4.125 12.1489 4.15895 12.3196 4.22491 12.4788C4.29087 12.6381 4.38755 12.7828 4.50942 12.9046C4.6313 13.0265 4.77599 13.1232 4.93523 13.1892C5.09447 13.2551 5.26514 13.2891 5.4375 13.2891C5.60986 13.2891 5.78053 13.2551 5.93977 13.1892C6.09901 13.1232 6.2437 13.0265 6.36558 12.9046C6.48745 12.7828 6.58413 12.6381 6.65009 12.4788C6.71605 12.3196 6.75 12.1489 6.75 11.9766C6.75 11.8042 6.71605 11.6335 6.65009 11.4743C6.58413 11.3151 6.48745 11.1704 6.36558 11.0485C6.2437 10.9266 6.09901 10.8299 5.93977 10.764C5.78053 10.698 5.60986 10.6641 5.4375 10.6641C5.26514 10.6641 5.09447 10.698 4.93523 10.764C4.77599 10.8299 4.6313 10.9266 4.50942 11.0485C4.38755 11.1704 4.29087 11.3151 4.22491 11.4743C4.15895 11.6335 4.125 11.8042 4.125 11.9766ZM10.6875 11.9766C10.6875 12.3247 10.8258 12.6585 11.0719 12.9046C11.3181 13.1508 11.6519 13.2891 12 13.2891C12.3481 13.2891 12.6819 13.1508 12.9281 12.9046C13.1742 12.6585 13.3125 12.3247 13.3125 11.9766C13.3125 11.6285 13.1742 11.2946 12.9281 11.0485C12.6819 10.8023 12.3481 10.6641 12 10.6641C11.6519 10.6641 11.3181 10.8023 11.0719 11.0485C10.8258 11.2946 10.6875 11.6285 10.6875 11.9766ZM17.25 11.9766C17.25 12.3247 17.3883 12.6585 17.6344 12.9046C17.8806 13.1508 18.2144 13.2891 18.5625 13.2891C18.9106 13.2891 19.2444 13.1508 19.4906 12.9046C19.7367 12.6585 19.875 12.3247 19.875 11.9766C19.875 11.6285 19.7367 11.2946 19.4906 11.0485C19.2444 10.8023 18.9106 10.6641 18.5625 10.6641C18.2144 10.6641 17.8806 10.8023 17.6344 11.0485C17.3883 11.2946 17.25 11.6285 17.25 11.9766Z" fill="#595959"/>

    </g>
    </symbol>
    
</svg>